<mxfile host="app.diagrams.net" modified="2023-10-11T09:47:04.227Z" agent="Mozilla/5.0 (Windows NT 10.0; Win64; x64) AppleWebKit/537.36 (KHTML, like Gecko) Chrome/117.0.0.0 Safari/537.36" version="22.0.4" etag="5EMU7iMi4-V17s6mpczY" type="github">
  <diagram name="Page-1" id="faVFG6T2yZWNW_s4HSsC">
    <mxGraphModel>
      <root>
        <mxCell id="0" />
        <mxCell id="1" parent="0" />
      </root>
    </mxGraphModel>
  </diagram>
</mxfile>
